<svg width="263" height="74" viewBox="0 0 263 74" fill="none" xmlns="http://www.w3.org/2000/svg">
<mask id="path-1-outside-1_757_9640" maskUnits="userSpaceOnUse" x="0" y="0" width="263" height="74" fill="black">
<rect fill="white" width="263" height="74"/>
<path d="M1 45.4948V1H10.3582V20.6186H10.9418L26.8702 1H38.0871L21.6616 20.9227L38.2816 45.4948H27.0863L14.9617 27.2015L10.3582 32.8503V45.4948H1Z"/>
<path d="M68.4747 1H77.8329V29.8956C77.8329 33.14 77.062 35.9789 75.5204 38.4122C73.9931 40.8455 71.8534 42.7429 69.1014 44.1044C66.3495 45.4514 63.1436 46.1249 59.4839 46.1249C55.8097 46.1249 52.5967 45.4514 49.8447 44.1044C47.0927 42.7429 44.9531 40.8455 43.4258 38.4122C41.8985 35.9789 41.1349 33.14 41.1349 29.8956V1H50.4931V29.0917C50.4931 30.7863 50.8605 32.2927 51.5953 33.6107C52.3445 34.9288 53.3964 35.9644 54.7507 36.7175C56.1051 37.4707 57.6828 37.8473 59.4839 37.8473C61.2993 37.8473 62.877 37.4707 64.217 36.7175C65.5714 35.9644 66.616 34.9288 67.3508 33.6107C68.1001 32.2927 68.4747 30.7863 68.4747 29.0917V1Z"/>
<path d="M104.217 19.5757V26.9191H84.0307V19.5757H104.217Z"/>
<path d="M110.409 1H121.95L134.14 30.895H134.658L146.848 1H158.389V45.4948H149.312V16.5341H148.944L137.49 45.2776H131.309L119.854 16.4255H119.486V45.4948H110.409V1Z"/>
<path d="M171.903 45.4948H161.874L177.154 1H189.214L204.473 45.4948H194.444L183.357 11.1678H183.011L171.903 45.4948ZM171.276 28.0054H194.963V35.3488H171.276V28.0054Z"/>
<path d="M244.997 1V45.4948H236.913L217.657 17.49H217.333V45.4948H207.974V1H216.187L235.293 28.9831H235.682V1H244.997Z"/>
<path d="M201.781 57.2891C201.548 56.332 200.992 55.6354 200.113 55.1991C199.234 54.7628 198.203 54.6176 197.021 54.7635C196.156 54.8702 195.417 55.1041 194.803 55.4653C194.195 55.8257 193.741 56.2742 193.438 56.8109C193.143 57.3468 193.033 57.9278 193.109 58.554C193.173 59.0779 193.352 59.5131 193.646 59.8595C193.946 60.1987 194.308 60.4685 194.732 60.6691C195.156 60.8632 195.594 61.0135 196.045 61.1199C196.496 61.2199 196.909 61.2954 197.283 61.3466L199.331 61.6385C199.856 61.7099 200.445 61.8254 201.096 61.9849C201.754 62.1437 202.395 62.3922 203.016 62.7305C203.644 63.0616 204.184 63.5203 204.636 64.1066C205.089 64.6928 205.371 65.446 205.483 66.3661C205.613 67.4267 205.453 68.4192 205.005 69.3437C204.563 70.2673 203.845 71.0466 202.852 71.6816C201.865 72.3158 200.621 72.7255 199.121 72.9106C197.723 73.0832 196.484 73.0058 195.406 72.6785C194.333 72.3504 193.455 71.8167 192.771 71.0774C192.094 70.3374 191.651 69.4353 191.444 68.3713L193.885 68.0701C194.039 68.8034 194.361 69.3862 194.853 69.8184C195.35 70.2435 195.947 70.5331 196.643 70.6871C197.345 70.8339 198.083 70.8595 198.859 70.7638C199.761 70.6524 200.554 70.4054 201.236 70.0229C201.918 69.6339 202.436 69.1484 202.791 68.5663C203.144 67.9778 203.278 67.3258 203.19 66.6102C203.111 65.9585 202.865 65.4505 202.453 65.0863C202.04 64.7221 201.523 64.4487 200.901 64.2661C200.278 64.0835 199.612 63.9387 198.902 63.8317L196.416 63.4382C194.836 63.1856 193.552 62.7053 192.562 61.9973C191.572 61.2893 190.997 60.274 190.835 58.9514C190.701 57.8525 190.879 56.8576 191.371 55.9668C191.867 55.0688 192.59 54.331 193.539 53.7534C194.494 53.1687 195.594 52.7994 196.839 52.6456C198.098 52.4903 199.244 52.579 200.278 52.9119C201.312 53.2383 202.162 53.756 202.829 54.4649C203.503 55.173 203.916 56.0202 204.069 57.0067L201.781 57.2891Z"/>
<path d="M210.022 71.215L207.624 51.5869L209.989 51.295L211.056 60.0357L221.467 58.7506L220.4 50.01L222.764 49.7182L225.161 69.3462L222.797 69.6381L221.725 60.8591L211.314 62.1442L212.386 70.9231L210.022 71.215Z"/>
<path d="M245.171 56.9145C245.424 58.9846 245.271 60.8195 244.711 62.4192C244.152 64.0189 243.274 65.3077 242.077 66.2855C240.88 67.2634 239.449 67.8551 237.784 68.0607C236.119 68.2662 234.588 68.0401 233.191 67.3823C231.795 66.7245 230.632 65.6876 229.705 64.2715C228.777 62.8554 228.186 61.1122 227.934 59.0421C227.681 56.9719 227.834 55.137 228.394 53.5373C228.953 51.9377 229.831 50.6489 231.028 49.671C232.225 48.6931 233.656 48.1014 235.321 47.8959C236.986 47.6903 238.517 47.9165 239.913 48.5743C241.31 49.2321 242.472 50.269 243.4 51.6851C244.328 53.1012 244.918 54.8443 245.171 56.9145ZM242.883 57.1969C242.675 55.4973 242.217 54.0978 241.509 52.9984C240.807 51.8982 239.939 51.107 238.906 50.6249C237.879 50.142 236.775 49.9735 235.592 50.1194C234.41 50.2653 233.376 50.6978 232.49 51.4169C231.609 52.1351 230.958 53.1138 230.535 54.3529C230.119 55.5912 230.014 57.0601 230.222 58.7597C230.429 60.4592 230.884 61.8591 231.586 62.9593C232.295 64.0588 233.163 64.8499 234.189 65.3329C235.222 65.815 236.33 65.9831 237.512 65.8372C238.694 65.6913 239.726 65.2592 240.606 64.5409C241.492 63.8218 242.143 62.8432 242.56 61.6049C242.983 60.3658 243.09 58.8965 242.883 57.1969Z"/>
<path d="M250.345 66.2378L247.948 46.6097L254.545 45.7954C256.077 45.6063 257.363 45.7297 258.404 46.1656C259.45 46.5942 260.265 47.2492 260.85 48.1303C261.435 49.0115 261.798 50.0303 261.94 51.1868C262.081 52.3433 261.974 53.4234 261.619 54.427C261.271 55.4299 260.645 56.2725 259.741 56.9548C258.836 57.6307 257.625 58.0624 256.105 58.2499L251.377 58.8336L251.119 56.7251L255.772 56.1509C256.82 56.0214 257.64 55.7354 258.231 55.2927C258.823 54.8501 259.223 54.3012 259.434 53.6462C259.649 52.9839 259.709 52.2598 259.613 51.474C259.517 50.6881 259.285 50.0033 258.917 49.4196C258.556 48.8351 258.032 48.4068 257.347 48.1346C256.662 47.8561 255.788 47.7823 254.727 47.9133L250.57 48.4264L252.71 65.946L250.345 66.2378Z"/>
</mask>
<path d="M1 45.4948V1H10.3582V20.6186H10.9418L26.8702 1H38.0871L21.6616 20.9227L38.2816 45.4948H27.0863L14.9617 27.2015L10.3582 32.8503V45.4948H1Z" fill="black"/>
<path d="M68.4747 1H77.8329V29.8956C77.8329 33.14 77.062 35.9789 75.5204 38.4122C73.9931 40.8455 71.8534 42.7429 69.1014 44.1044C66.3495 45.4514 63.1436 46.1249 59.4839 46.1249C55.8097 46.1249 52.5967 45.4514 49.8447 44.1044C47.0927 42.7429 44.9531 40.8455 43.4258 38.4122C41.8985 35.9789 41.1349 33.14 41.1349 29.8956V1H50.4931V29.0917C50.4931 30.7863 50.8605 32.2927 51.5953 33.6107C52.3445 34.9288 53.3964 35.9644 54.7507 36.7175C56.1051 37.4707 57.6828 37.8473 59.4839 37.8473C61.2993 37.8473 62.877 37.4707 64.217 36.7175C65.5714 35.9644 66.616 34.9288 67.3508 33.6107C68.1001 32.2927 68.4747 30.7863 68.4747 29.0917V1Z" fill="black"/>
<path d="M104.217 19.5757V26.9191H84.0307V19.5757H104.217Z" fill="black"/>
<path d="M110.409 1H121.95L134.14 30.895H134.658L146.848 1H158.389V45.4948H149.312V16.5341H148.944L137.49 45.2776H131.309L119.854 16.4255H119.486V45.4948H110.409V1Z" fill="black"/>
<path d="M171.903 45.4948H161.874L177.154 1H189.214L204.473 45.4948H194.444L183.357 11.1678H183.011L171.903 45.4948ZM171.276 28.0054H194.963V35.3488H171.276V28.0054Z" fill="black"/>
<path d="M244.997 1V45.4948H236.913L217.657 17.49H217.333V45.4948H207.974V1H216.187L235.293 28.9831H235.682V1H244.997Z" fill="black"/>
<path d="M201.781 57.2891C201.548 56.332 200.992 55.6354 200.113 55.1991C199.234 54.7628 198.203 54.6176 197.021 54.7635C196.156 54.8702 195.417 55.1041 194.803 55.4653C194.195 55.8257 193.741 56.2742 193.438 56.8109C193.143 57.3468 193.033 57.9278 193.109 58.554C193.173 59.0779 193.352 59.5131 193.646 59.8595C193.946 60.1987 194.308 60.4685 194.732 60.6691C195.156 60.8632 195.594 61.0135 196.045 61.1199C196.496 61.2199 196.909 61.2954 197.283 61.3466L199.331 61.6385C199.856 61.7099 200.445 61.8254 201.096 61.9849C201.754 62.1437 202.395 62.3922 203.016 62.7305C203.644 63.0616 204.184 63.5203 204.636 64.1066C205.089 64.6928 205.371 65.446 205.483 66.3661C205.613 67.4267 205.453 68.4192 205.005 69.3437C204.563 70.2673 203.845 71.0466 202.852 71.6816C201.865 72.3158 200.621 72.7255 199.121 72.9106C197.723 73.0832 196.484 73.0058 195.406 72.6785C194.333 72.3504 193.455 71.8167 192.771 71.0774C192.094 70.3374 191.651 69.4353 191.444 68.3713L193.885 68.0701C194.039 68.8034 194.361 69.3862 194.853 69.8184C195.35 70.2435 195.947 70.5331 196.643 70.6871C197.345 70.8339 198.083 70.8595 198.859 70.7638C199.761 70.6524 200.554 70.4054 201.236 70.0229C201.918 69.6339 202.436 69.1484 202.791 68.5663C203.144 67.9778 203.278 67.3258 203.19 66.6102C203.111 65.9585 202.865 65.4505 202.453 65.0863C202.04 64.7221 201.523 64.4487 200.901 64.2661C200.278 64.0835 199.612 63.9387 198.902 63.8317L196.416 63.4382C194.836 63.1856 193.552 62.7053 192.562 61.9973C191.572 61.2893 190.997 60.274 190.835 58.9514C190.701 57.8525 190.879 56.8576 191.371 55.9668C191.867 55.0688 192.59 54.331 193.539 53.7534C194.494 53.1687 195.594 52.7994 196.839 52.6456C198.098 52.4903 199.244 52.579 200.278 52.9119C201.312 53.2383 202.162 53.756 202.829 54.4649C203.503 55.173 203.916 56.0202 204.069 57.0067L201.781 57.2891Z" fill="white"/>
<path d="M210.022 71.215L207.624 51.5869L209.989 51.295L211.056 60.0357L221.467 58.7506L220.4 50.01L222.764 49.7182L225.161 69.3462L222.797 69.6381L221.725 60.8591L211.314 62.1442L212.386 70.9231L210.022 71.215Z" fill="white"/>
<path d="M245.171 56.9145C245.424 58.9846 245.271 60.8195 244.711 62.4192C244.152 64.0189 243.274 65.3077 242.077 66.2855C240.88 67.2634 239.449 67.8551 237.784 68.0607C236.119 68.2662 234.588 68.0401 233.191 67.3823C231.795 66.7245 230.632 65.6876 229.705 64.2715C228.777 62.8554 228.186 61.1122 227.934 59.0421C227.681 56.9719 227.834 55.137 228.394 53.5373C228.953 51.9377 229.831 50.6489 231.028 49.671C232.225 48.6931 233.656 48.1014 235.321 47.8959C236.986 47.6903 238.517 47.9165 239.913 48.5743C241.31 49.2321 242.472 50.269 243.4 51.6851C244.328 53.1012 244.918 54.8443 245.171 56.9145ZM242.883 57.1969C242.675 55.4973 242.217 54.0978 241.509 52.9984C240.807 51.8982 239.939 51.107 238.906 50.6249C237.879 50.142 236.775 49.9735 235.592 50.1194C234.41 50.2653 233.376 50.6978 232.49 51.4169C231.609 52.1351 230.958 53.1138 230.535 54.3529C230.119 55.5912 230.014 57.0601 230.222 58.7597C230.429 60.4592 230.884 61.8591 231.586 62.9593C232.295 64.0588 233.163 64.8499 234.189 65.3329C235.222 65.815 236.33 65.9831 237.512 65.8372C238.694 65.6913 239.726 65.2592 240.606 64.5409C241.492 63.8218 242.143 62.8432 242.56 61.6049C242.983 60.3658 243.09 58.8965 242.883 57.1969Z" fill="white"/>
<path d="M250.345 66.2378L247.948 46.6097L254.545 45.7954C256.077 45.6063 257.363 45.7297 258.404 46.1656C259.45 46.5942 260.265 47.2492 260.85 48.1303C261.435 49.0115 261.798 50.0303 261.94 51.1868C262.081 52.3433 261.974 53.4234 261.619 54.427C261.271 55.4299 260.645 56.2725 259.741 56.9548C258.836 57.6307 257.625 58.0624 256.105 58.2499L251.377 58.8336L251.119 56.7251L255.772 56.1509C256.82 56.0214 257.64 55.7354 258.231 55.2927C258.823 54.8501 259.223 54.3012 259.434 53.6462C259.649 52.9839 259.709 52.2598 259.613 51.474C259.517 50.6881 259.285 50.0033 258.917 49.4196C258.556 48.8351 258.032 48.4068 257.347 48.1346C256.662 47.8561 255.788 47.7823 254.727 47.9133L250.57 48.4264L252.71 65.946L250.345 66.2378Z" fill="white"/>
<path d="M1 45.4948V1H10.3582V20.6186H10.9418L26.8702 1H38.0871L21.6616 20.9227L38.2816 45.4948H27.0863L14.9617 27.2015L10.3582 32.8503V45.4948H1Z" stroke="black" stroke-width="2" mask="url(#path-1-outside-1_757_9640)"/>
<path d="M68.4747 1H77.8329V29.8956C77.8329 33.14 77.062 35.9789 75.5204 38.4122C73.9931 40.8455 71.8534 42.7429 69.1014 44.1044C66.3495 45.4514 63.1436 46.1249 59.4839 46.1249C55.8097 46.1249 52.5967 45.4514 49.8447 44.1044C47.0927 42.7429 44.9531 40.8455 43.4258 38.4122C41.8985 35.9789 41.1349 33.14 41.1349 29.8956V1H50.4931V29.0917C50.4931 30.7863 50.8605 32.2927 51.5953 33.6107C52.3445 34.9288 53.3964 35.9644 54.7507 36.7175C56.1051 37.4707 57.6828 37.8473 59.4839 37.8473C61.2993 37.8473 62.877 37.4707 64.217 36.7175C65.5714 35.9644 66.616 34.9288 67.3508 33.6107C68.1001 32.2927 68.4747 30.7863 68.4747 29.0917V1Z" stroke="black" stroke-width="2" mask="url(#path-1-outside-1_757_9640)"/>
<path d="M104.217 19.5757V26.9191H84.0307V19.5757H104.217Z" stroke="black" stroke-width="2" mask="url(#path-1-outside-1_757_9640)"/>
<path d="M110.409 1H121.95L134.14 30.895H134.658L146.848 1H158.389V45.4948H149.312V16.5341H148.944L137.49 45.2776H131.309L119.854 16.4255H119.486V45.4948H110.409V1Z" stroke="black" stroke-width="2" mask="url(#path-1-outside-1_757_9640)"/>
<path d="M171.903 45.4948H161.874L177.154 1H189.214L204.473 45.4948H194.444L183.357 11.1678H183.011L171.903 45.4948ZM171.276 28.0054H194.963V35.3488H171.276V28.0054Z" stroke="black" stroke-width="2" mask="url(#path-1-outside-1_757_9640)"/>
<path d="M244.997 1V45.4948H236.913L217.657 17.49H217.333V45.4948H207.974V1H216.187L235.293 28.9831H235.682V1H244.997Z" stroke="black" stroke-width="2" mask="url(#path-1-outside-1_757_9640)"/>
<path d="M201.781 57.2891C201.548 56.332 200.992 55.6354 200.113 55.1991C199.234 54.7628 198.203 54.6176 197.021 54.7635C196.156 54.8702 195.417 55.1041 194.803 55.4653C194.195 55.8257 193.741 56.2742 193.438 56.8109C193.143 57.3468 193.033 57.9278 193.109 58.554C193.173 59.0779 193.352 59.5131 193.646 59.8595C193.946 60.1987 194.308 60.4685 194.732 60.6691C195.156 60.8632 195.594 61.0135 196.045 61.1199C196.496 61.2199 196.909 61.2954 197.283 61.3466L199.331 61.6385C199.856 61.7099 200.445 61.8254 201.096 61.9849C201.754 62.1437 202.395 62.3922 203.016 62.7305C203.644 63.0616 204.184 63.5203 204.636 64.1066C205.089 64.6928 205.371 65.446 205.483 66.3661C205.613 67.4267 205.453 68.4192 205.005 69.3437C204.563 70.2673 203.845 71.0466 202.852 71.6816C201.865 72.3158 200.621 72.7255 199.121 72.9106C197.723 73.0832 196.484 73.0058 195.406 72.6785C194.333 72.3504 193.455 71.8167 192.771 71.0774C192.094 70.3374 191.651 69.4353 191.444 68.3713L193.885 68.0701C194.039 68.8034 194.361 69.3862 194.853 69.8184C195.35 70.2435 195.947 70.5331 196.643 70.6871C197.345 70.8339 198.083 70.8595 198.859 70.7638C199.761 70.6524 200.554 70.4054 201.236 70.0229C201.918 69.6339 202.436 69.1484 202.791 68.5663C203.144 67.9778 203.278 67.3258 203.19 66.6102C203.111 65.9585 202.865 65.4505 202.453 65.0863C202.04 64.7221 201.523 64.4487 200.901 64.2661C200.278 64.0835 199.612 63.9387 198.902 63.8317L196.416 63.4382C194.836 63.1856 193.552 62.7053 192.562 61.9973C191.572 61.2893 190.997 60.274 190.835 58.9514C190.701 57.8525 190.879 56.8576 191.371 55.9668C191.867 55.0688 192.59 54.331 193.539 53.7534C194.494 53.1687 195.594 52.7994 196.839 52.6456C198.098 52.4903 199.244 52.579 200.278 52.9119C201.312 53.2383 202.162 53.756 202.829 54.4649C203.503 55.173 203.916 56.0202 204.069 57.0067L201.781 57.2891Z" stroke="black" stroke-width="2" mask="url(#path-1-outside-1_757_9640)"/>
<path d="M210.022 71.215L207.624 51.5869L209.989 51.295L211.056 60.0357L221.467 58.7506L220.4 50.01L222.764 49.7182L225.161 69.3462L222.797 69.6381L221.725 60.8591L211.314 62.1442L212.386 70.9231L210.022 71.215Z" stroke="black" stroke-width="2" mask="url(#path-1-outside-1_757_9640)"/>
<path d="M245.171 56.9145C245.424 58.9846 245.271 60.8195 244.711 62.4192C244.152 64.0189 243.274 65.3077 242.077 66.2855C240.88 67.2634 239.449 67.8551 237.784 68.0607C236.119 68.2662 234.588 68.0401 233.191 67.3823C231.795 66.7245 230.632 65.6876 229.705 64.2715C228.777 62.8554 228.186 61.1122 227.934 59.0421C227.681 56.9719 227.834 55.137 228.394 53.5373C228.953 51.9377 229.831 50.6489 231.028 49.671C232.225 48.6931 233.656 48.1014 235.321 47.8959C236.986 47.6903 238.517 47.9165 239.913 48.5743C241.31 49.2321 242.472 50.269 243.4 51.6851C244.328 53.1012 244.918 54.8443 245.171 56.9145ZM242.883 57.1969C242.675 55.4973 242.217 54.0978 241.509 52.9984C240.807 51.8982 239.939 51.107 238.906 50.6249C237.879 50.142 236.775 49.9735 235.592 50.1194C234.41 50.2653 233.376 50.6978 232.49 51.4169C231.609 52.1351 230.958 53.1138 230.535 54.3529C230.119 55.5912 230.014 57.0601 230.222 58.7597C230.429 60.4592 230.884 61.8591 231.586 62.9593C232.295 64.0588 233.163 64.8499 234.189 65.3329C235.222 65.815 236.33 65.9831 237.512 65.8372C238.694 65.6913 239.726 65.2592 240.606 64.5409C241.492 63.8218 242.143 62.8432 242.56 61.6049C242.983 60.3658 243.09 58.8965 242.883 57.1969Z" stroke="black" stroke-width="2" mask="url(#path-1-outside-1_757_9640)"/>
<path d="M250.345 66.2378L247.948 46.6097L254.545 45.7954C256.077 45.6063 257.363 45.7297 258.404 46.1656C259.45 46.5942 260.265 47.2492 260.85 48.1303C261.435 49.0115 261.798 50.0303 261.94 51.1868C262.081 52.3433 261.974 53.4234 261.619 54.427C261.271 55.4299 260.645 56.2725 259.741 56.9548C258.836 57.6307 257.625 58.0624 256.105 58.2499L251.377 58.8336L251.119 56.7251L255.772 56.1509C256.82 56.0214 257.64 55.7354 258.231 55.2927C258.823 54.8501 259.223 54.3012 259.434 53.6462C259.649 52.9839 259.709 52.2598 259.613 51.474C259.517 50.6881 259.285 50.0033 258.917 49.4196C258.556 48.8351 258.032 48.4068 257.347 48.1346C256.662 47.8561 255.788 47.7823 254.727 47.9133L250.57 48.4264L252.71 65.946L250.345 66.2378Z" stroke="black" stroke-width="2" mask="url(#path-1-outside-1_757_9640)"/>
</svg>
